<?xml version="1.0" standalone="no"?>
<!DOCTYPE svg PUBLIC "-//W3C//DTD SVG 20010904//EN"
 "http://www.w3.org/TR/2001/REC-SVG-20010904/DTD/svg10.dtd">
<svg version="1.0" xmlns="http://www.w3.org/2000/svg"
 width="300.000000pt" height="335.000000pt" viewBox="0 0 300.000000 335.000000"
 preserveAspectRatio="xMidYMid meet">
<metadata>
Created by potrace 1.10, written by Peter Selinger 2001-2011
</metadata>
<g transform="translate(0.000000,335.000000) scale(0.100000,-0.100000)"
fill="#000000" stroke="none">
<path style="fill:#FFF;" d="M1342 3289 c-124 -15 -285 -61 -387 -112 -367 -183 -599 -613 -582
-1077 6 -158 27 -250 87 -378 53 -112 84 -160 204 -312 164 -207 284 -406 348
-573 23 -62 49 -112 65 -127 20 -18 22 -19 9 -3 -10 12 -29 65 -42 118 -48
196 -153 413 -317 660 -169 253 -221 403 -216 621 8 388 213 755 505 903 141
71 296 104 489 104 133 0 160 -3 240 -27 164 -49 287 -117 413 -230 l63 -56
99 0 c67 0 100 4 100 11 0 20 -103 139 -170 197 -267 228 -565 321 -908 281z"/>
<path style="fill:#FFF;" d="M2670 3040 l0 -140 140 0 140 0 0 140 0 140 -140 0 -140 0 0 -140z"/>
<path style="fill:#FFF;" d="M2440 2975 l0 -75 75 0 75 0 0 75 0 75 -75 0 -75 0 0 -75z"/>
<path style="fill:#FFF;" d="M2634 2797 c-3 -8 -4 -47 -2 -88 l3 -74 85 0 85 0 3 88 3 87 -86 0
c-62 0 -87 -4 -91 -13z"/>
<path style="fill:#FFF;" d="M1332 2775 c-213 -39 -376 -181 -453 -395 -21 -58 -23 -83 -23 -225
0 -142 2 -167 23 -225 69 -193 200 -323 384 -382 l67 -22 -2 -451 -3 -450 -95
-6 c-107 -6 -123 -11 -162 -47 -32 -30 -44 -76 -29 -115 l11 -27 452 2 452 3
8 33 c13 48 -15 101 -67 127 -30 15 -65 21 -142 23 l-103 4 0 453 0 454 58 15
c31 9 95 35 142 59 l85 42 0 240 0 240 -187 3 -188 2 0 -59 c0 -44 4 -60 16
-65 9 -3 60 -6 115 -6 l99 0 0 -139 0 -139 -49 -21 c-161 -69 -375 -67 -499 5
-129 75 -200 193 -223 371 -28 224 65 434 231 518 152 77 372 67 520 -24 70
-43 89 -41 124 16 l30 46 -35 29 c-125 106 -348 151 -557 113z m248 -1705 l0
-450 -95 0 -95 0 0 450 0 450 95 0 95 0 0 -450z"/>
<path style="fill:#FFF;" d="M2140 2565 l0 -165 165 0 165 0 0 165 0 165 -165 0 -165 0 0 -165z"/>
<path style="fill:#FFF;" d="M2541 2458 l-1 -128 -43 0 -43 0 2 -137 c4 -213 -26 -346 -124 -538
-108 -213 -131 -261 -170 -361 -61 -151 -121 -339 -136 -424 -18 -98 -28 -121
-66 -153 -35 -30 -33 -34 10 -12 37 19 62 63 89 154 49 163 194 463 322 664
38 59 84 138 103 175 126 253 156 577 76 828 l-19 59 0 -127z"/>
<path  style="fill:#FFF;" d="M850 305 l0 -35 148 0 147 0 24 -50 c30 -62 95 -124 169 -158 50 -24
69 -27 162 -27 99 0 109 2 172 33 74 36 150 111 168 167 l11 34 147 3 147 3 3
33 3 32 -650 0 -651 0 0 -35z"/>
</g>
</svg>
